<?xml version="1.0" encoding="UTF-8"?>
<svg width="14px" height="14px" viewBox="0 0 14 14" version="1.1" xmlns="http://www.w3.org/2000/svg" xmlns:xlink="http://www.w3.org/1999/xlink">
    <title>勾</title>
    <g id="收银台" stroke="none" stroke-width="1" fill="none" fill-rule="evenodd">
        <g id="顾客支付成功跳转移动端页面" transform="translate(-30.000000, -108.000000)" fill="#3D3D3D" fill-rule="nonzero">
            <g id="勾" transform="translate(30.000000, 108.000000)">
                <path d="M7.00022569,0 C10.8668709,0 14,3.13403191 14,7.00022569 C14,10.8668709 10.8659681,14 7.00022569,14 C3.13267773,14 0,10.8659681 0,7.00022569 C0,3.13267773 3.13403191,0 7.00022569,0 Z M7.00022569,0.902788959 C3.63237143,0.902788959 0.902788959,3.63192004 0.902788959,7.00022569 C0.902788959,10.3676286 3.63192002,13.097211 7.00022569,13.097211 C10.3676286,13.097211 13.097211,10.36808 13.097211,7.00022569 C13.097211,3.63237143 10.3685313,0.902788959 7.00022569,0.902788959 Z M10.0484927,4.08827987 C10.2550791,3.88768509 10.5837443,3.8877859 10.7902076,4.08850736 C10.996671,4.28922883 11.0060392,4.61776048 10.8113493,4.82992099 L6.18455586,9.58852167 C5.98212185,9.79648435 5.65039404,9.80391409 5.43885216,9.60522328 L3.19181042,7.48998872 C3.04526785,7.36174941 2.98046525,7.16371366 3.02285118,6.97365189 C3.06523711,6.78359011 3.20804294,6.6318534 3.39518753,6.57803011 C3.58233212,6.52420682 3.78393024,6.57689203 3.9208125,6.71539578 L5.79139125,8.47583428 L10.0484927,4.08827987 L10.0484927,4.08827987 Z" id="形状"></path>
            </g>
        </g>
    </g>
</svg>