<?xml version="1.0" encoding="UTF-8"?>
<svg width="26px" height="18px" viewBox="0 0 26 18" version="1.1" xmlns="http://www.w3.org/2000/svg" xmlns:xlink="http://www.w3.org/1999/xlink">
    <title>中国(1)</title>
    <defs>
        <rect id="path-1" x="0" y="0" width="25.5789474" height="17.7940503" rx="2"></rect>
    </defs>
    <g id="交易记录及销售链接" stroke="none" stroke-width="1" fill="none" fill-rule="evenodd">
        <g id="商品详情" transform="translate(-15.000000, -283.000000)">
            <g id="编组-3" transform="translate(15.000000, 185.000000)">
                <g id="分组" transform="translate(0.000000, 73.000000)">
                    <g id="分组" transform="translate(0.000000, 23.000000)">
                        <g id="中国(1)" transform="translate(0.000000, 2.000000)">
                            <mask id="mask-2" fill="white">
                                <use xlink:href="#path-1"></use>
                            </mask>
                            <use id="Mask" fill="#D8D8D8" xlink:href="#path-1"></use>
                            <g id="Group-3" mask="url(#mask-2)" fill-rule="nonzero">
                                <polygon id="Shape" fill="#CD2A2A" points="0 0 25.5789474 0 25.5789474 17.7940503 0 17.7940503"></polygon>
                                <path d="M4.16666667,2.20971867 L4.71929823,3.86562314 L6.43859649,3.86562314 L5.02631578,4.9483299 L5.57894738,6.66792301 L4.16666667,5.58521625 L2.75438596,6.66792301 L3.30701755,4.9483299 L1.89473684,3.86562314 L3.61403508,3.86562314 L4.16666667,2.20971867 Z M10.0614035,5.58521625 L10.245614,6.0947253 L10.7368421,6.0947253 L10.3070175,6.41316848 L10.4912281,6.92267755 L10.0614035,6.60423437 L9.63157895,6.92267755 L9.81578947,6.41316848 L9.38596491,6.0947253 L9.93859648,6.0947253 L10.0614035,5.58521625 Z M10.6140351,3.16504817 L10.368421,3.6108686 L10.7368421,3.99300039 L10.245614,3.92931178 L9.99999999,4.43882085 L9.93859648,3.86562314 L9.38596491,3.8019345 L9.87719299,3.54717996 L9.75438596,3.03767092 L10.122807,3.41980271 L10.6140351,3.16504817 Z M7.78947368,1.57283234 L8.28070176,1.76389824 L8.6491228,1.3180778 L8.58771929,1.89127549 L9.07894736,2.08234141 L8.58771929,2.20971867 L8.5263158,2.71922774 L8.28070176,2.27340731 L7.72807017,2.40078456 L8.09649121,2.01865277 L7.78947368,1.57283234 Z M7.78947368,7.68694116 L8.28070176,7.87800705 L8.6491228,7.43218662 L8.58771929,8.00538431 L9.07894736,8.1964502 L8.58771929,8.32382749 L8.5263158,8.89702517 L8.28070176,8.38751613 L7.72807017,8.57858202 L8.09649121,8.13276159 L7.78947368,7.68694116 Z" id="Shape" fill="#FFE232"></path>
                            </g>
                        </g>
                    </g>
                </g>
            </g>
        </g>
    </g>
</svg>