<?xml version="1.0" encoding="UTF-8"?>
<svg width="36px" height="36px" viewBox="0 0 36 36" version="1.1" xmlns="http://www.w3.org/2000/svg" xmlns:xlink="http://www.w3.org/1999/xlink">
    <title>商户</title>
    <defs>
        <circle id="path-1" cx="14" cy="14" r="14"></circle>
        <filter x="-25.0%" y="-17.9%" width="150.0%" height="150.0%" filterUnits="objectBoundingBox" id="filter-2">
            <feOffset dx="0" dy="2" in="SourceAlpha" result="shadowOffsetOuter1"></feOffset>
            <feGaussianBlur stdDeviation="2" in="shadowOffsetOuter1" result="shadowBlurOuter1"></feGaussianBlur>
            <feColorMatrix values="0 0 0 0 0.717412092   0 0 0 0 0.717412092   0 0 0 0 0.717412092  0 0 0 0.5 0" type="matrix" in="shadowBlurOuter1"></feColorMatrix>
        </filter>
    </defs>
    <g id="交易记录及销售链接" stroke="none" stroke-width="1" fill="none" fill-rule="evenodd">
        <g id="预览效果" transform="translate(-11.000000, -88.000000)">
            <g id="商户" transform="translate(15.000000, 90.000000)">
                <g id="椭圆形">
                    <use fill="black" fill-opacity="1" filter="url(#filter-2)" xlink:href="#path-1"></use>
                    <use fill="#FFFFFF" fill-rule="evenodd" xlink:href="#path-1"></use>
                </g>
                <g id="商家(1)" transform="translate(6.000000, 7.000000)" fill="#8C8C8C" fill-rule="nonzero">
                    <path d="M15.5553963,5.79298476 C15.5553963,6.85938608 14.684973,7.77783834 13.6109718,7.77783834 C12.5370017,7.77783834 11.6665473,6.85935493 11.6665473,5.79298476 L11.6665473,5.79298476 L11.6665473,5.79298476 L11.6665473,5.79298476 C11.6665473,6.85938608 10.7960928,7.77783834 9.72212271,7.77783834 C8.64812149,7.77783834 7.77769817,6.85935493 7.77769817,5.79298476 L7.77769817,5.79298476 L7.77769817,5.79298476 L7.77769817,5.79298476 L7.77769817,5.79298476 C7.77769817,6.85938608 6.90725928,7.77783834 5.83327363,7.77783834 C4.75928797,7.77783834 3.88884908,6.85935493 3.88884908,5.79298476 L3.88884908,5.79298476 L3.88884908,5.79298476 L3.88884908,5.79298476 L3.88884908,5.79298476 C3.88884908,6.85938608 3.0184102,7.77783834 1.94442454,7.77783834 C0.870454454,7.77783834 0,6.85935493 0,5.79298476 L0,5.79298476 L0,5.79298476 L0,5.79298476 L1.55553652,2.33331256 L13.9998598,2.33331256 L15.5553963,5.79298476 L15.5553963,5.79298476 L15.5553963,5.79298476 Z M13.2220838,1.55552095 L2.33335929,1.55552095 C1.85028221,1.55552095 1.55559881,1.17765903 1.55559881,0.777760476 C1.55559881,0.37786192 1.79940331,0 2.43060076,0 L13.1249202,0 C13.7112657,0 13.9999065,0.377877504 13.9999065,0.777760476 C13.9999065,1.17765903 13.624661,1.55552095 13.2220838,1.55552095 Z M2.33335929,8.16674194 L2.33335929,8.16674194 C2.40325354,8.16029447 2.26536501,8.1781418 2.33335929,8.16674194 C2.34816976,8.16409443 2.31892257,8.16903126 2.33335929,8.16674194 C2.36488023,8.16065267 2.69111571,8.17357874 2.72226288,8.16674194 C2.85440476,8.13635788 2.98695155,8.21459957 3.1111509,8.16674194 L3.1111509,8.16674194 L3.1111509,8.16674194 L3.1111509,11.6666874 L12.4443545,11.6666874 L12.4443545,8.16674194 L12.8332425,8.16674194 L12.8332425,8.16674194 C12.9570681,8.21459957 13.0903312,8.13635788 13.2221305,8.16674194 C13.2532777,8.17357874 13.1906251,8.16065267 13.2221305,8.16674194 C13.2365828,8.16901569 13.20732,8.16409443 13.2221305,8.16674194 C13.2905141,8.17812624 13.1522674,8.16029447 13.2221305,8.16674194 L13.2221305,8.16674194 C13.3022722,8.17396808 13.5289769,8.16674194 13.6110185,8.16674194 C13.7773756,8.16674194 13.8419125,8.19561538 13.9999377,8.16674194 L13.9999377,13.222224 C13.9999377,13.6217332 13.6247077,14 13.2221461,14 L2.33339042,14 C1.93082879,14 1.55562995,13.6217332 1.55562995,13.222224 L1.55562995,8.16674194 C1.71362399,8.19561538 1.77819209,8.16674194 1.94451799,8.16674194 C2.02649733,8.16674194 2.25324876,8.17396808 2.33335929,8.16674194 Z" id="形状"></path>
                </g>
            </g>
        </g>
    </g>
</svg>