<?xml version="1.0" encoding="UTF-8"?>
<svg width="14px" height="16px" viewBox="0 0 14 16" version="1.1" xmlns="http://www.w3.org/2000/svg" xmlns:xlink="http://www.w3.org/1999/xlink">
    <title>地址</title>
    <g id="交易记录及销售链接" stroke="none" stroke-width="1" fill="none" fill-rule="evenodd">
        <g id="APP-交易详情" transform="translate(-30.000000, -189.000000)" fill="#333333" fill-rule="nonzero">
            <g id="编组-3" transform="translate(30.000000, 186.000000)">
                <g id="地址" transform="translate(0.000000, 3.000000)">
                    <path d="M6.99753396,0 C3.97076392,0 1.51975597,2.37777244 1.50665694,5.33666565 C1.50665694,6.39917595 1.82282,7.41077866 2.40959719,8.27531492 L2.46705433,8.35718388 L2.50039731,8.41255707 L2.52778621,8.45423583 C2.54624394,8.48132702 2.56589249,8.50722738 2.58792268,8.53283003 L2.60161713,8.54771529 L6.09340288,12.6090113 C6.32007049,12.8724704 6.6505231,13.0237582 6.99806955,13.0231876 C7.34561601,13.0226137 7.6755686,12.8702384 7.90136733,12.6060343 L11.3741,8.54414283 L11.3511766,8.56944779 C11.3854407,8.53364264 11.4166125,8.49500149 11.4443584,8.45393812 L11.4711519,8.41285478 C11.482167,8.39558787 11.5036018,8.35926782 11.5030063,8.36045865 C12.118661,7.50009025 12.4639991,6.4515721 12.4768005,5.34648992 C12.4768005,2.38432194 10.019243,0 6.99753396,0 Z M6.99753396,1.19082129 C9.36935228,1.19082129 11.2859792,3.05028875 11.2859792,5.339345 C11.2779124,6.18322161 11.0100318,7.00411931 10.5187925,7.69032396 L10.4672895,7.77189522 L6.99604544,11.8325959 L3.50396198,7.7712998 L3.47032126,7.71562891 L3.45305437,7.69032396 C2.96053593,7.005467 2.69617607,6.18290991 2.69747346,5.339345 C2.70789793,3.04552548 4.61946383,1.19082129 6.99753396,1.19082129 Z" id="形状"></path>
                    <path d="M11.7432545,11.27678 C12.0116252,11.1201778 12.3552971,11.1962756 12.5324714,11.451533 L12.5574786,11.4908301 L13.8376115,13.6840253 C14.0460466,14.0411057 14.054342,14.4807474 13.8595255,14.8454366 C13.664709,15.2101258 13.2946671,15.4476602 12.8819774,15.4729366 L12.8024901,15.4750205 L1.18424208,15.4116093 C0.772517101,15.4093341 0.391178302,15.1945347 0.175844179,14.8436019 C-0.0394899436,14.492669 -0.0582645367,14.0553984 0.126197355,13.6873 L0.163410515,13.6185301 L1.38340694,11.5381653 C1.54467385,11.2612957 1.89612746,11.1616953 2.17867728,11.3127894 C2.4612271,11.4638834 2.57353954,11.8114834 2.43281821,12.0993398 L2.41078802,12.1404232 L1.1907916,14.220788 L12.8090396,14.2841992 L11.5289067,12.0910041 C11.3632858,11.8069677 11.4592466,11.4424498 11.7432545,11.27678 L11.7432545,11.27678 Z" id="路径"></path>
                    <path d="M7.00199954,3.06457861 C6.15101422,3.06468495 5.36472809,3.51877848 4.93932753,4.25580656 C4.51392698,4.99283465 4.51404046,5.90082518 4.93962524,6.6377469 C5.36521001,7.37466862 6.15160963,7.8285656 7.00259495,7.82845924 C8.31810423,7.82829478 9.38440192,6.7617305 9.3842375,5.44622121 C9.38407308,4.13071192 8.31750883,3.06441422 7.00199954,3.06457861 L7.00199954,3.06457861 Z M7.00199954,4.25539988 C7.65983641,4.25556433 8.19298527,4.78897976 8.19282089,5.44681663 C8.19265643,6.10465349 7.659241,6.63780235 7.00140414,6.63763797 C6.5758583,6.63753157 6.18269448,6.41040729 5.97001367,6.04182061 C5.75733286,5.67323393 5.75744634,5.21918192 5.97031137,4.8507016 C6.1831764,4.48222128 6.57645371,4.25529355 7.00199954,4.25539988 Z" id="形状"></path>
                </g>
            </g>
        </g>
    </g>
</svg>